<svg width="32" height="32" viewBox="0 0 32 32" fill="none" xmlns="http://www.w3.org/2000/svg">
<path d="M2.3347 31.4986C1.04528 31.4986 0 30.4533 0 29.1639V7.42204C0 6.13262 1.04528 5.08734 2.3347 5.08734H9.11991C11.7343 5.08734 13.9899 5.6163 15.8869 6.67421C17.7838 7.71996 19.2369 9.23386 20.2462 11.2159C21.2676 13.198 21.7784 15.5448 21.7784 18.2565C21.7784 20.9925 21.2676 23.3576 20.2462 25.3518C19.2248 27.3339 17.7534 28.8538 15.8322 29.9117C13.9109 30.9697 11.6248 31.4986 8.97399 31.4986H2.3347ZM8.71864 27.3764C11.4789 27.3764 13.5522 26.6164 14.9384 25.0964C16.3368 23.5764 17.036 21.2965 17.036 18.2565C17.036 15.2408 16.349 12.9791 14.9749 11.4713C13.6008 9.96346 11.564 9.20954 8.86455 9.20954H7.07705C5.78763 9.20954 4.74235 10.2548 4.74235 11.5442V25.0417C4.74235 26.3311 5.78763 27.3764 7.07705 27.3764H8.71864Z" fill="#AFD5FF"/>
<path d="M8.71864 27.3764C11.4789 27.3764 13.5522 26.6164 14.9384 25.0964C16.3368 23.5764 17.036 21.2965 17.036 18.2565C17.036 15.2408 16.349 12.9791 14.9749 11.4713C13.6008 9.96346 11.564 9.20954 8.86455 9.20954H7.07705C5.78763 9.20954 4.74235 10.2548 4.74235 11.5442V25.0417C4.74235 26.3311 5.78763 27.3764 7.07705 27.3764H8.71864Z" fill="#AFD5FF"/>
<path d="M32 11.9831C32 14.3976 30.0427 16.3549 27.6282 16.3549C25.2137 16.3549 23.2563 14.3976 23.2563 11.9831C23.2563 9.5686 25.2137 7.61127 27.6282 7.61127C30.0427 7.61127 32 9.5686 32 11.9831Z" fill="#AFD5FF"/>
<path d="M8.65348 15.1832C8.65348 15.8304 8.12883 16.355 7.48165 16.355C6.83446 16.355 6.30981 15.8304 6.30981 15.1832C6.30981 14.536 6.83446 14.0114 7.48165 14.0114C8.12883 14.0114 8.65348 14.536 8.65348 15.1832Z" fill="#203674"/>
<path d="M15.4142 17.2564C15.4142 17.9036 14.8896 18.4283 14.2424 18.4283C13.5952 18.4283 13.0706 17.9036 13.0706 17.2564C13.0706 16.6092 13.5952 16.0846 14.2424 16.0846C14.8896 16.0846 15.4142 16.6092 15.4142 17.2564Z" fill="#203674"/>
</svg>
